<?xml version="1.0" encoding="UTF-8" standalone="no"?>
<!-- Created with Inkscape (http://www.inkscape.org/) -->

<svg
   xmlns:dc="http://purl.org/dc/elements/1.1/"
   xmlns:cc="http://creativecommons.org/ns#"
   xmlns:rdf="http://www.w3.org/1999/02/22-rdf-syntax-ns#"
   xmlns:svg="http://www.w3.org/2000/svg"
   xmlns="http://www.w3.org/2000/svg"
   xmlns:sodipodi="http://sodipodi.sourceforge.net/DTD/sodipodi-0.dtd"
   xmlns:inkscape="http://www.inkscape.org/namespaces/inkscape"
   width="192"
   height="192"
   viewBox="0 0 192 192"
   id="svg3358"
   version="1.1"
   inkscape:version="0.91 r13725"
   sodipodi:docname="FC-logo-only.svg"
   inkscape:export-filename="/home/pospi/projects/freedomcoop/ocp-app/public/favicon.png"
   inkscape:export-xdpi="90"
   inkscape:export-ydpi="90">
  <defs
     id="defs3360" />
  <sodipodi:namedview
     id="base"
     pagecolor="#ffffff"
     bordercolor="#666666"
     borderopacity="1.0"
     inkscape:pageopacity="0.0"
     inkscape:pageshadow="2"
     inkscape:zoom="5.6"
     inkscape:cx="70.253348"
     inkscape:cy="81.020195"
     inkscape:document-units="px"
     inkscape:current-layer="layer1"
     showgrid="false"
     units="px"
     inkscape:window-width="3200"
     inkscape:window-height="1752"
     inkscape:window-x="0"
     inkscape:window-y="48"
     inkscape:window-maximized="1" />
  <metadata
     id="metadata3363">
    <rdf:RDF>
      <cc:Work
         rdf:about="">
        <dc:format>image/svg+xml</dc:format>
        <dc:type
           rdf:resource="http://purl.org/dc/dcmitype/StillImage" />
        <dc:title></dc:title>
      </cc:Work>
    </rdf:RDF>
  </metadata>
  <g
     inkscape:label="Layer 1"
     inkscape:groupmode="layer"
     id="layer1"
     transform="translate(0,-860.36216)">
    <g
       id="g3376"
       transform="matrix(3.4814916,0,0,3.4814916,3358.5426,-3107.5396)">
      <path
         id="path9"
         d="m -945.59286,1187.2229 c 9.7,0 17.6,-7.9 17.6,-17.6 0,-9.7 -7.9,-17.6 -17.6,-17.6 -9.7,0 -17.6,7.9 -17.6,17.6 0,9.7 7.9,17.6 17.6,17.6"
         style="fill:#a26fad"
         inkscape:connector-curvature="0" />
      <path
         id="path11"
         d="m -919.79286,1154.6229 0,-6.7 6.7,6.7 -6.7,0 z m -9.5,19.5 -4.6,4.3 0,-9.8 4.6,5.5 z m -5.9,-24.2 13.8,16.7 -7.1,6.7 -19.3,-23.4 12.6,0 z m 14.3,-2 0,17.5 -8.1,-9.8 8.1,-7.7 z m 9.6,6.9 -8.6,-8.6 c -0.2,-0.2 -0.6,-0.2 -0.8,0 l -9,8.6 -4.7,-5.7 c -0.1,-0.1 -0.3,-0.2 -0.4,-0.2 l -14.1,0 c -0.2,0 -0.4,0.1 -0.5,0.3 -0.1,0.2 -0.1,0.4 0.1,0.6 l 14.4,17.5 0,12.5 c 0,0 0,0 0,0 0,0.1 0,0.2 0.1,0.2 0,0 0,0 0,0.1 0,0 0,0 0,0.1 0.1,0.1 0.1,0.1 0.2,0.1 0,0 0,0 0,0 0,0 0,0 0,0 0,0 0.1,0 0.1,0 0,0 0.1,0 0.1,0 0.1,0 0.3,-0.1 0.4,-0.2 l 14.1,-13.3 c 0.1,-0.1 0.2,-0.3 0.2,-0.4 l 0,-10.7 8.1,0 c 0.2,0 0.4,-0.1 0.5,-0.3 0,-0.2 0,-0.4 -0.2,-0.6"
         style="fill:#283583"
         inkscape:connector-curvature="0" />
      <path
         id="path13"
         d="m -918.99286,1152.0229 c 0.3,0.3 0.8,0.3 1.1,0 0.3,-0.3 0.3,-0.8 0,-1.1 -0.3,-0.3 -0.8,-0.3 -1.1,0 -0.3,0.3 -0.3,0.8 0,1.1"
         style="fill:#283583"
         inkscape:connector-curvature="0" />
    </g>
  </g>
</svg>
