<?xml version="1.0" encoding="UTF-8" standalone="no"?>
<svg width="21px" height="30px" viewBox="0 0 21 30" version="1.1" xmlns="http://www.w3.org/2000/svg" xmlns:xlink="http://www.w3.org/1999/xlink">
    <!-- Generator: Sketch 42 (36781) - http://www.bohemiancoding.com/sketch -->
    <title>Artboard</title>
    <desc>Created with Sketch.</desc>
    <defs></defs>
    <g id="Symbols" stroke="none" stroke-width="1" fill="none" fill-rule="evenodd">
        <g id="Artboard" fill-rule="nonzero" fill="#4ECDC4">
            <g id="Feather">
                <path d="M1.8392,28.6982667 C2.28946667,27.258 2.96853333,25.2310667 3.87933333,22.3006667 C7.8496,21.6714667 9.49226667,22.8008 12.0134667,18.2981333 C9.96746667,18.9244 7.50053333,17.1365333 7.63253333,16.3606667 C7.766,15.5862667 13.3716,16.9194667 17.0426667,11.7069333 C12.4153333,12.7277333 10.9354667,10.4808 11.5324,10.142 C12.9096,9.3588 16.9972,9.8164 19.1766667,7.69413333 C20.3001333,6.60146667 20.8266667,3.94533333 20.3690667,2.99786667 C19.8205333,1.8524 16.4736,0.143733333 14.6285333,0.305066667 C12.7834667,0.464933333 9.88973333,7.3304 9.03026667,7.2776 C8.17373333,7.22333333 7.9992,4.20053333 9.49813333,1.39186667 C7.91853333,2.09146667 5.02333333,4.26506667 4.11546667,6.12333333 C2.4244,9.58026667 4.27386667,17.5134667 3.68133333,17.7950667 C3.08733333,18.0781333 1.0912,14.1562667 0.495733333,12.3772 C-0.318266667,15.1037333 -0.337333333,17.8346667 2.04013333,21.4617333 C1.144,23.8421333 0.654133333,26.5818667 0.579333333,27.9752 C0.544133333,29.0884 1.6412,29.3274667 1.8392,28.6982667 Z" id="Shape"></path>
            </g>
        </g>
    </g>
</svg>